<svg aria-hidden="true" style="position:absolute;width:0;height:0" xmlns="http://www.w3.org/2000/svg" overflow="hidden">
  <defs>
    <symbol id="logo" viewBox="0 0 21 32">
      <path d="M2.667 1.333H4v1.333h13.333V1.333h1.333V16h-1.333v-1.333H4V16H2.667V1.333zm1.333 3V5c0 .184.149.333.333.333H5A.333.333 0 0 0 5.333 5v-.667A.333.333 0 0 0 5 4h-.667A.333.333 0 0 0 4 4.333zM4 7v.667c0 .184.149.333.333.333H5a.333.333 0 0 0 .333-.333V7A.333.333 0 0 0 5 6.667h-.667A.333.333 0 0 0 4 7zm0 2.667v.667c0 .184.149.333.333.333H5a.333.333 0 0 0 .333-.333v-.667A.333.333 0 0 0 5 9.334h-.667A.333.333 0 0 0 4 9.667zm0 2.666V13c0 .184.149.333.333.333H5A.333.333 0 0 0 5.333 13v-.667A.333.333 0 0 0 5 12h-.667a.333.333 0 0 0-.333.333zm13.333-8A.333.333 0 0 0 17 4h-.667a.333.333 0 0 0-.333.333V5c0 .184.149.333.333.333H17A.333.333 0 0 0 17.333 5v-.667zm0 2.667A.333.333 0 0 0 17 6.667h-.667A.333.333 0 0 0 16 7v.667c0 .184.149.333.333.333H17a.333.333 0 0 0 .333-.333V7zm0 2.667A.333.333 0 0 0 17 9.334h-.667a.333.333 0 0 0-.333.333v.667c0 .184.149.333.333.333H17a.333.333 0 0 0 .333-.333v-.667zm0 2.666A.333.333 0 0 0 17 12h-.667a.333.333 0 0 0-.333.333V13c0 .184.149.333.333.333H17a.333.333 0 0 0 .333-.333v-.667zM1.333 18c0-.368.298-.667.667-.667h17.333c.368 0 .667.299.667.667v2a.667.667 0 0 1-.667.667h-3.057l-4.667 4.667 5.333 5.333h-1.886l-4.391-4.391-4.391 4.391H4.388l5.333-5.333-4.667-4.667H1.997A.667.667 0 0 1 1.33 20v-2zm5.61 2.667 3.724 3.724 3.724-3.724H6.943z"/>
    </symbol>
<!-- brans -->
    <symbol id="telegram" viewBox="0 0 24 20">
      <path d="M9.41718 13.1809L9.02018 18.7649C9.58818 18.7649 9.83418 18.5209 10.1292 18.2279L12.7922 15.6829L18.3102 19.7239C19.3222 20.2879 20.0352 19.9909 20.3082 18.7929L23.9302 1.82092L23.9312 1.81992C24.2522 0.323917 23.3902 -0.261083 22.4042 0.105917L1.11418 8.25692C-0.338822 8.82092 -0.316822 9.63092 0.867178 9.99792L6.31018 11.6909L18.9532 3.77992C19.5482 3.38592 20.0892 3.60392 19.6442 3.99792L9.41718 13.1809Z"></path>
    </symbol>
    <symbol id="telegram-2" viewBox="0 0 32 32">
      <path d="M15.925 0C7.121.042 0 7.19 0 16c0 8.837 7.163 16 16 16s16-7.163 16-16S24.837 0 16 0h-.076.002zm6.616 9.632c.133-.003.428.031.62.187a.673.673 0 0 1 .228.43v.003c.021.124.048.408.027.629-.24 2.531-1.283 8.669-1.813 11.503-.224 1.2-.665 1.601-1.093 1.64-.928.087-1.633-.613-2.533-1.203-1.408-.924-2.204-1.499-3.571-2.4-1.58-1.04-.556-1.613.344-2.547.236-.245 4.329-3.969 4.409-4.307.009-.043.019-.2-.075-.283s-.232-.055-.332-.032c-.141.032-2.391 1.52-6.748 4.46-.64.44-1.217.653-1.736.64-.571-.011-1.669-.321-2.487-.587-1.003-.327-1.799-.499-1.729-1.052.036-.288.433-.583 1.191-.884 4.664-2.032 7.773-3.372 9.331-4.019 4.443-1.848 5.367-2.169 5.968-2.18z"/>
    </symbol>
    <symbol id="viber" viewBox="0 0 32 32">
      <path d="M27.75 3.119C26.956 2.388 23.744.056 16.581.025c0 0-8.444-.506-12.556 3.269C1.737 5.582.931 8.938.844 13.094S.65 25.038 8.157 27.15h.006l-.006 3.225s-.05 1.306.813 1.569c1.037.325 1.65-.669 2.644-1.738a97.604 97.604 0 0 0 1.863-2.106c5.137.431 9.081-.556 9.531-.7 1.038-.337 6.906-1.087 7.856-8.875.988-8.037-.475-13.113-3.113-15.406zm.869 14.819c-.806 6.5-5.563 6.913-6.438 7.194-.375.119-3.844.981-8.2.7 0 0-3.25 3.919-4.262 4.938-.331.331-.694.3-.688-.356 0-.431.025-5.356.025-5.356-.006 0-.006 0 0 0-6.362-1.762-5.987-8.394-5.919-11.863S3.862 6.882 5.8 4.97c3.481-3.156 10.65-2.688 10.65-2.688 6.056.025 8.956 1.85 9.631 2.463 2.231 1.912 3.369 6.488 2.538 13.194zm-8.688-5.051c.025.537-.781.575-.806.037-.069-1.375-.712-2.044-2.038-2.119-.538-.031-.488-.838.044-.806 1.744.094 2.712 1.094 2.8 2.888zm1.269.707c.063-2.65-1.594-4.725-4.738-4.956-.531-.037-.475-.844.056-.806 3.625.262 5.556 2.756 5.488 5.781-.006.537-.819.512-.806-.019zm2.937.837c.006.537-.806.544-.806.006-.038-5.094-3.431-7.869-7.55-7.9-.531-.006-.531-.806 0-.806 4.606.031 8.313 3.213 8.356 8.7zm-.706 6.132v.012c-.675 1.188-1.938 2.5-3.238 2.081l-.012-.019c-1.319-.369-4.425-1.969-6.387-3.531a16.35 16.35 0 0 1-2.65-2.65 20.218 20.218 0 0 1-1.925-2.912c-1.331-2.406-1.625-3.481-1.625-3.481-.419-1.3.887-2.563 2.081-3.237h.012c.575-.3 1.125-.2 1.494.244 0 0 .775.925 1.106 1.381.313.425.731 1.106.95 1.488.381.681.144 1.375-.231 1.662l-.75.6c-.381.306-.331.875-.331.875s1.113 4.206 5.269 5.269c0 0 .569.05.875-.331l.6-.75c.288-.375.981-.613 1.663-.231.919.519 2.087 1.325 2.863 2.056.438.356.538.9.238 1.475z"/>
    </symbol>
    <symbol id="whatsapp" viewBox="0 0 448 512">
      <path d="M380.9 97.1C339 55.1 283.2 32 223.9 32c-122.4 0-222 99.6-222 222 0 39.1 10.2 77.3 29.6 111L0 480l117.7-30.9c32.4 17.7 68.9 27 106.1 27h.1c122.3 0 224.1-99.6 224.1-222 0-59.3-25.2-115-67.1-157zm-157 341.6c-33.2 0-65.7-8.9-94-25.7l-6.7-4-69.8 18.3L72 359.2l-4.4-7c-18.5-29.4-28.2-63.3-28.2-98.2 0-101.7 82.8-184.5 184.6-184.5 49.3 0 95.6 19.2 130.4 54.1 34.8 34.9 56.2 81.2 56.1 130.5 0 101.8-84.9 184.6-186.6 184.6zm101.2-138.2c-5.5-2.8-32.8-16.2-37.9-18-5.1-1.9-8.8-2.8-12.5 2.8-3.7 5.6-14.3 18-17.6 21.8-3.2 3.7-6.5 4.2-12 1.4-32.6-16.3-54-29.1-75.5-66-5.7-9.8 5.7-9.1 16.3-30.3 1.8-3.7.9-6.9-.5-9.7-1.4-2.8-12.5-30.1-17.1-41.2-4.5-10.8-9.1-9.3-12.5-9.5-3.2-.2-6.9-.2-10.6-.2-3.7 0-9.7 1.4-14.8 6.9-5.1 5.6-19.4 19-19.4 46.3 0 27.3 19.9 53.7 22.6 57.4 2.8 3.7 39.1 59.7 94.8 83.8 35.2 15.2 49 16.5 66.6 13.9 10.7-1.6 32.8-13.4 37.4-26.4 4.6-13 4.6-24.1 3.2-26.4-1.3-2.5-5-3.9-10.5-6.6z"/>
    </symbol>
    <symbol id="instagram" viewBox="0 0 32 32">
      <path d="M16 0c-4.347 0-4.889.02-6.596.096C7.7.176 6.54.444 5.52.84c-1.052.408-1.945.956-2.835 1.845S1.246 4.466.84 5.52C.444 6.54.175 7.7.096 9.404.016 11.111 0 11.653 0 16s.02 4.889.096 6.596c.08 1.703.348 2.864.744 3.884a7.854 7.854 0 0 0 1.845 2.835A7.807 7.807 0 0 0 5.52 31.16c1.021.395 2.181.665 3.884.744 1.707.08 2.249.096 6.596.096s4.889-.02 6.596-.096c1.703-.08 2.864-.349 3.884-.744a7.867 7.867 0 0 0 2.835-1.845 7.799 7.799 0 0 0 1.845-2.835c.395-1.02.665-2.181.744-3.884.08-1.707.096-2.249.096-6.596s-.02-4.889-.096-6.596c-.08-1.703-.349-2.865-.744-3.884a7.859 7.859 0 0 0-1.845-2.835A7.786 7.786 0 0 0 26.48.84C25.46.444 24.299.175 22.596.096 20.889.016 20.347 0 16 0zm0 2.88c4.271 0 4.78.021 6.467.095 1.56.073 2.407.332 2.969.553.749.289 1.28.636 1.843 1.195a4.95 4.95 0 0 1 1.195 1.841c.219.563.48 1.409.551 2.969.076 1.688.093 2.195.093 6.467s-.02 4.78-.099 6.467c-.081 1.56-.341 2.407-.561 2.969-.299.749-.639 1.28-1.199 1.843a5.002 5.002 0 0 1-1.84 1.195c-.56.219-1.42.48-2.98.551-1.699.076-2.199.093-6.479.093-4.281 0-4.781-.02-6.479-.099-1.561-.081-2.421-.341-2.981-.561-.759-.299-1.28-.639-1.839-1.199a4.867 4.867 0 0 1-1.2-1.84c-.22-.56-.479-1.42-.56-2.98-.06-1.68-.081-2.199-.081-6.459 0-4.261.021-4.781.081-6.481.081-1.56.34-2.419.56-2.979.28-.76.639-1.28 1.2-1.841.559-.559 1.08-.919 1.839-1.197.56-.221 1.401-.481 2.961-.561 1.7-.06 2.2-.08 6.479-.08l.06.04zm0 4.904A8.215 8.215 0 0 0 7.784 16c0 4.54 3.68 8.216 8.216 8.216 4.54 0 8.216-3.68 8.216-8.216 0-4.54-3.68-8.216-8.216-8.216zm0 13.549c-2.947 0-5.333-2.387-5.333-5.333s2.387-5.333 5.333-5.333 5.333 2.387 5.333 5.333-2.387 5.333-5.333 5.333zM26.461 7.46a1.921 1.921 0 0 1-3.84 0 1.92 1.92 0 0 1 3.84 0z"/>
    </symbol>
    <symbol id="instagram-2" viewBox="0 0 24 24">
      <path d="M23.9763 7.05607C23.9201 5.78085 23.7139 4.90416 23.4185 4.14449C23.1137 3.33812 22.6449 2.61617 22.0306 2.01602C21.4305 1.40652 20.7038 0.932921 19.9068 0.632936C19.1427 0.337529 18.2706 0.131312 16.9954 0.0750879C15.7106 0.0141019 15.3028 0 12.0443 0C8.78588 0 8.37803 0.0141019 7.09805 0.0703262C5.82284 0.126551 4.94615 0.332951 4.18666 0.628174C3.38011 0.932922 2.65816 1.40176 2.05801 2.01602C1.44852 2.61617 0.975096 3.34288 0.674928 4.13991C0.379521 4.90416 0.173304 5.77609 0.11708 7.0513C0.056094 8.33604 0.0419922 8.7439 0.0419922 12.0023C0.0419922 15.2608 0.056094 15.6686 0.112318 16.9486C0.168543 18.2238 0.374943 19.1005 0.670349 19.8602C0.975096 20.6666 1.44852 21.3885 2.05801 21.9887C2.65816 22.5982 3.38487 23.0718 4.1819 23.3718C4.94615 23.6672 5.81808 23.8734 7.09347 23.9296C8.37327 23.986 8.7813 23.9999 12.0398 23.9999C15.2982 23.9999 15.7061 23.986 16.986 23.9296C18.2612 23.8734 19.1379 23.6672 19.8974 23.3718C21.5103 22.7482 22.7856 21.4729 23.4092 19.8602C23.7044 19.096 23.9108 18.2238 23.967 16.9486C24.0232 15.6686 24.0373 15.2608 24.0373 12.0023C24.0373 8.7439 24.0326 8.33604 23.9763 7.05607ZM21.8151 16.8549C21.7634 18.027 21.5666 18.6599 21.4025 19.0819C20.9992 20.1274 20.1694 20.9572 19.1238 21.3605C18.7019 21.5246 18.0644 21.7215 16.8968 21.7729C15.631 21.8293 15.2513 21.8433 12.0491 21.8433C8.84687 21.8433 8.46245 21.8293 7.20116 21.7729C6.02906 21.7215 5.39612 21.5246 4.97417 21.3605C4.45386 21.1682 3.98026 20.8634 3.59585 20.4649C3.19733 20.0758 2.89258 19.6069 2.70029 19.0866C2.53619 18.6647 2.33931 18.027 2.28785 16.8596C2.23144 15.5937 2.21753 15.2139 2.21753 12.0117C2.21753 8.80946 2.23144 8.42505 2.28785 7.16394C2.33931 5.99183 2.53619 5.3589 2.70029 4.93694C2.89258 4.41645 3.19733 3.94303 3.60061 3.55843C3.9896 3.15992 4.45844 2.85517 4.97893 2.66306C5.40088 2.49896 6.03858 2.30209 7.20592 2.25044C8.4718 2.19422 8.85163 2.18011 12.0537 2.18011C15.2607 2.18011 15.6403 2.19422 16.9016 2.25044C18.0737 2.30209 18.7066 2.49896 19.1286 2.66306C19.6489 2.85517 20.1225 3.15992 20.5069 3.55843C20.9054 3.94761 21.2102 4.41645 21.4025 4.93694C21.5666 5.3589 21.7634 5.99641 21.8151 7.16394C21.8713 8.42981 21.8854 8.80946 21.8854 12.0117C21.8854 15.2139 21.8713 15.589 21.8151 16.8549Z" fill="white"></path>
      <path d="M12.0442 5.83691C8.64049 5.83691 5.87891 8.59832 5.87891 12.0022C5.87891 15.406 8.64049 18.1674 12.0442 18.1674C15.448 18.1674 18.2094 15.406 18.2094 12.0022C18.2094 8.59832 15.448 5.83691 12.0442 5.83691ZM12.0442 16.0014C9.83604 16.0014 8.04492 14.2105 8.04492 12.0022C8.04492 9.79386 9.83604 8.00293 12.0442 8.00293C14.2525 8.00293 16.0434 9.79386 16.0434 12.0022C16.0434 14.2105 14.2525 16.0014 12.0442 16.0014Z" fill="white"></path>
      <path d="M19.8925 5.5936C19.8925 6.38844 19.248 7.03291 18.453 7.03291C17.6581 7.03291 17.0137 6.38844 17.0137 5.5936C17.0137 4.79859 17.6581 4.1543 18.453 4.1543C19.248 4.1543 19.8925 4.79859 19.8925 5.5936Z" fill="white"></path>
    </symbol>
    <symbol id="facebook" viewBox="0 0 12 24">
      <path d="M7.5 8.25V5.25C7.5 4.422 8.172 3.75 9 3.75H10.5V0H7.5C5.0145 0 3 2.0145 3 4.5V8.25H0V12H3V24H7.5V12H10.5L12 8.25H7.5Z"></path>
    </symbol>
    <symbol id="facebook-2" viewBox="0 0 32 32">
      <path d="M32 16.097c0-8.836-7.164-16-16-16s-16 7.164-16 16c0 7.987 5.851 14.605 13.5 15.805v-11.18H9.437v-4.627H13.5v-3.523c0-4.009 2.389-6.225 6.044-6.225 1.749 0 3.581.313 3.581.313v3.937h-2.019c-1.988 0-2.608 1.233-2.608 2.499v3h4.437l-.709 4.627h-3.728v11.18c7.651-1.201 13.501-7.821 13.501-15.807z"/>
    </symbol>
    <symbol id="tiktok" viewBox="0 0 32 32">
      <path d="M16.7.027C18.447 0 20.18.014 21.913 0c.107 2.04.84 4.12 2.333 5.56 1.493 1.48 3.6 2.16 5.653 2.387v5.373c-1.92-.067-3.853-.467-5.6-1.293-.76-.347-1.467-.787-2.16-1.24-.013 3.893.013 7.787-.027 11.667-.107 1.867-.72 3.72-1.8 5.253-1.747 2.56-4.773 4.227-7.88 4.28-1.907.107-3.813-.413-5.44-1.373-2.693-1.587-4.587-4.493-4.867-7.613a24.42 24.42 0 0 1-.013-1.987 10.004 10.004 0 0 1 3.44-6.613c2.213-1.92 5.307-2.84 8.2-2.293.027 1.973-.053 3.947-.053 5.92-1.32-.427-2.867-.307-4.027.493a4.631 4.631 0 0 0-1.813 2.333c-.28.68-.2 1.427-.187 2.147.32 2.187 2.427 4.027 4.667 3.827 1.493-.013 2.92-.88 3.693-2.147.253-.44.533-.893.547-1.413.133-2.387.08-4.76.093-7.147.013-5.373-.013-10.733.027-16.093z"/>
    </symbol>
    <symbol id="youtube" viewBox="0 0 30 20">
      <path d="M27.9727 3.12324C27.6435 1.89323 26.6768 0.926623 25.4468 0.597366C23.2197 2.24288e-07 14.285 0 14.285 0C14.285 0 5.35042 2.24288e-07 3.12323 0.597366C1.89323 0.926623 0.926623 1.89323 0.597366 3.12324C2.24288e-07 5.35042 0 10 0 10C0 10 2.24288e-07 14.6496 0.597366 16.8768C0.926623 18.1068 1.89323 19.0734 3.12323 19.4026C5.35042 20 14.285 20 14.285 20C14.285 20 23.2197 20 25.4468 19.4026C26.6768 19.0734 27.6435 18.1068 27.9727 16.8768C28.5701 14.6496 28.5701 10 28.5701 10C28.5701 10 28.5677 5.35042 27.9727 3.12324Z" fill="#FF0000" class="style-scope yt-icon"></path>
      <path d="M11.4253 14.2854L18.8477 10.0004L11.4253 5.71533V14.2854Z" fill="white"></path>
    </symbol>
    <symbol id="youtube-2" viewBox="0 0 36 32">
      <path d="M34.353 7.755a4.289 4.289 0 0 0-3.018-3.037C28.673 4 17.999 4 17.999 4S7.325 4 4.663 4.718a4.289 4.289 0 0 0-3.018 3.037c-.713 2.679-.713 8.269-.713 8.269s0 5.59.713 8.269c.393 1.478 1.549 2.594 3.018 2.989C7.325 28 17.999 28 17.999 28s10.674 0 13.336-.718c1.469-.395 2.625-1.511 3.018-2.989.713-2.679.713-8.269.713-8.269s0-5.59-.713-8.269zM14.509 21.099v-10.15l8.921 5.075-8.921 5.075z"/>
    </symbol>
    <symbol id="youtube-3" viewBox="0 0 24 17">
      <path d="M22.7747 3.37619C22.5154 2.41228 21.7554 1.65244 20.7916 1.39288C19.0309 0.911133 11.988 0.911133 11.988 0.911133C11.988 0.911133 4.94536 0.911133 3.18466 1.37462C2.23943 1.6339 1.46091 2.41241 1.20163 3.37619C0.738281 5.13675 0.738281 8.78792 0.738281 8.78792C0.738281 8.78792 0.738281 12.4575 1.20163 14.1996C1.46118 15.1634 2.22089 15.9233 3.1848 16.1828C4.9639 16.6647 11.9883 16.6647 11.9883 16.6647C11.9883 16.6647 19.0309 16.6647 20.7916 16.2012C21.7555 15.9418 22.5154 15.182 22.7749 14.2182C23.2381 12.4575 23.2381 8.80646 23.2381 8.80646C23.2381 8.80646 23.2567 5.13675 22.7747 3.37619ZM9.7457 12.161V5.41484L15.6022 8.78792L9.7457 12.161Z"></path>
    </symbol>
    <symbol id="youtube-4" viewBox="0 0 46 32">
      <path d="M39.111 0.356h-32c-3.732 0-6.756 3.024-6.756 6.756v17.778c0 3.732 3.024 6.756 6.756 6.756h32c3.732 0 6.756-3.024 6.756-6.756v-17.778c0-3.732-3.024-6.756-6.756-6.756zM18.133 23.111v-14.222l12.089 7.111-12.089 7.111z"></path>
    </symbol>

    <symbol id="googlemaps" viewBox="0 0 32 32">
      <path d="M26.036 6.399c1.616 3.477 1.249 7.571-.54 10.897-1.468 2.729-3.659 4.987-5.464 7.485-.825 1.144-1.659 2.333-2.225 3.636-.188.433-.351.877-.511 1.323-.161.444-.299.897-.453 1.344-.145.419-.315.912-.836.916h-.009c-.621-.001-.772-.707-.927-1.183-.379-1.165-.775-2.284-1.359-3.367-.68-1.259-1.527-2.423-2.387-3.561L26.036 6.398zm-14.643 3.874-5.279 6.276c.965 2.053 2.428 3.817 3.828 5.573.329.413.659.829.983 1.248l6.645-7.9-.039.013c-2.321.801-4.921-.388-5.856-2.649a4.315 4.315 0 0 1-.275-.927l-.004-.027c-.084-.583-.103-1.015-.005-1.597l.001-.009zm-4.07-6.074-.004.005c-2.596 3.288-3.041 7.84-1.489 11.693l6.38-7.585-.077-.067-4.809-4.047zM19.548.581l-5.117 6.084a.38.38 0 0 1 .033-.013l.003-.001c2.133-.735 4.537.2 5.627 2.168.235.425.431.911.503 1.393.091.595.113 1.031.016 1.627l-.004.021 5.115-6.081C24.378 3.357 22.227 1.52 19.64.608l-.078-.024L19.55.58zm-6.927 7.243L18.882.38l-.063-.016A10.826 10.826 0 0 0 16.002 0h-.023.001a11.228 11.228 0 0 0-8.217 3.679l-.008.009-.021.024 4.887 4.112z"/>
    </symbol>
    <symbol id="googledrive" viewBox="0 0 32 32">
      <path d="M16.013 1.98c-2.776 0-5.005.027-4.991.063.013.027 2.277 4.001 5.032 8.827l5.013 8.765h5.013c2.775 0 5.004-.027 4.989-.063-.007-.027-2.277-4.001-5.033-8.827L21.023 1.98zM9.667 4.287c1.066-2.18-.538.572-2.131 3.333l-2.709 5.092L0 21.157l2.52 4.397 2.513 4.396 9.651-16.887-2.507-4.383C10.8 6.271 9.673 4.292 9.666 4.284zm3.012 16.87-.271.464c-.152.264-1.28 2.229-2.507 4.383-2.202 4.044-2.953 5.339-3.708 6.63l1.444-2.67c-.013.035 4.32.056 9.629.056h9.659l2.395-4.209c1.323-2.312 2.467-4.307 2.541-4.431l.139-.223h-9.665z"/>
    </symbol>
<!-- symbols -->
    <symbol id="phone-solid" viewBox="0 0 32 32">
      <path d="M10.306 1.538A2.492 2.492 0 0 0 7.343.088l-5.5 1.5A2.508 2.508 0 0 0-.001 4c0 15.462 12.537 28 28 28a2.508 2.508 0 0 0 2.413-1.844l1.5-5.5a2.493 2.493 0 0 0-1.45-2.962l-6-2.5a2.493 2.493 0 0 0-2.894.725L19.043 23A21.122 21.122 0 0 1 8.999 12.956l3.081-2.519c.856-.7 1.15-1.875.725-2.894l-2.5-6z"/>
    </symbol>
    <symbol id="envelope-solid" viewBox="0 0 32 32">
      <path d="M3 4a3.001 3.001 0 0 0-1.8 5.4l13.6 10.2a2.007 2.007 0 0 0 2.4 0L30.8 9.4A3.001 3.001 0 0 0 29 4H3zm-3 7v13c0 2.206 1.794 4 4 4h24c2.206 0 4-1.794 4-4V11L18.4 21.2a3.993 3.993 0 0 1-4.8 0L0 11z"/>
    </symbol>

<!-- other -->
  
    <symbol id="play-1" viewBox="0 0 459 459">
      <path d="M229.5 0C102.751 0 0 102.751 0 229.5S102.751 459 229.5 459 459 356.249 459 229.5 356.249 0 229.5 0zm80.792 239.651-111.764 76.084a12.281 12.281 0 0 1-19.19-10.151V153.416a12.281 12.281 0 0 1 19.19-10.151l111.764 76.084a12.28 12.28 0 0 1 0 20.302z"/>
    </symbol>
    <symbol id="play-2" viewBox="0 0 32 32">
      <path d="m6 4 20 12L6 28z"/>
    </symbol>
    <symbol id="play-3" viewBox="0 0 32 32">
      <path d="m6 4 20 12L6 28z"/>
    </symbol>
    
    <symbol id="up-long-solid" viewBox="0 0 20 32">
      <path d="M19.875 11.094a1.498 1.498 0 0 0-.288-1.625l-8.5-9C10.806.169 10.412 0 9.999 0s-.806.169-1.088.469l-8.5 9A1.5 1.5 0 0 0 1.499 12h5.5v18c0 1.106.894 2 2 2h2c1.106 0 2-.894 2-2V12h5.5c.6 0 1.137-.356 1.375-.906z"/>
    </symbol>
    <symbol id="star-regular" viewBox="0 0 36 32">
      <path d="M17.994 0a1.5 1.5 0 0 1 1.35.845l4.288 8.83 9.581 1.419a1.5 1.5 0 0 1 1.206 1.012 1.503 1.503 0 0 1-.369 1.531l-6.95 6.887 1.644 9.719a1.497 1.497 0 0 1-.606 1.469c-.462.331-1.131.375-1.581.106l-8.563-4.575-8.613 4.575c-.45.269-1.063.225-1.531-.106-.463-.331-.694-.906-.656-1.469l1.694-9.719-6.943-6.887a1.496 1.496 0 0 1 .837-2.543l9.576-1.419 4.287-8.83A1.506 1.506 0 0 1 17.995 0zm0 4.934L14.713 11.7a1.525 1.525 0 0 1-1.131.831l-7.395 1.088 5.37 5.319c.344.344.5.837.419 1.319l-1.262 7.475 6.575-3.512a1.487 1.487 0 0 1 1.413 0l6.575 3.512-1.262-7.475a1.517 1.517 0 0 1 .425-1.319l5.369-5.319-7.394-1.088a1.501 1.501 0 0 1-1.131-.831l-3.288-6.766z"/>
    </symbol>
    <symbol id="location-dot-solid" viewBox="0 0 24 32">
      <path d="M13.481 31.2C16.687 27.188 24 17.462 24 12c0-6.625-5.375-12-12-12S0 5.375 0 12c0 5.462 7.313 15.188 10.519 19.2a1.89 1.89 0 0 0 2.963 0zM12 16c-2.206 0-4-1.794-4-4s1.794-4 4-4 4 1.794 4 4-1.794 4-4 4z"/>
    </symbol>
    <symbol id="image-regular" viewBox="0 0 32 32">
      <path d="M9.5 7.5a3 3 0 1 0 0 6 3 3 0 0 0 0-6zM27.944 2h-24C1.791 2 0 3.791 0 6v20c0 2.209 1.791 4 3.944 4h24a4 4 0 0 0 4-4V6c.001-2.209-1.737-4-3.999-4zm1 23.581-8.55-11.619c-.156-.287-.512-.463-.894-.463s-.739.173-.951.461l-6.662 9.006-2.318-2.881c-.215-.267-.558-.426-.923-.426s-.708.158-.924.426l-4.72 5.863c0-.002 0 .002 0 0L3 5.999c0-.551.449-1 1-1h24c.551 0 1 .449 1 1V25.58z"/>
    </symbol>
    <symbol id="heart-solid" viewBox="0 0 32 32">
      <path d="m2.975 18.775 11.294 10.544a2.538 2.538 0 0 0 3.462 0l11.294-10.544A9.35 9.35 0 0 0 32 11.931v-.363a8.933 8.933 0 0 0-15.25-6.319l-.75.75-.75-.75A8.934 8.934 0 0 0 0 11.568v.363a9.35 9.35 0 0 0 2.975 6.844z"/>
    </symbol>
    <symbol id="heart-regular" viewBox="0 0 32 32">
      <path d="m15.25 5.25.694.75.75-.749c2.094-2.041 4.994-2.969 7.844-2.495A8.932 8.932 0 0 1 32 11.569v.363a9.35 9.35 0 0 1-2.975 6.844L17.731 29.32a2.538 2.538 0 0 1-3.462 0L2.975 18.776a9.36 9.36 0 0 1-2.974-6.844v-.363a8.934 8.934 0 0 1 7.463-8.813c2.794-.474 5.75.454 7.787 2.494-.056 0 0 .001 0 0zm.694 4.994-2.813-2.925a6.065 6.065 0 0 0-5.175-1.604A5.935 5.935 0 0 0 3 11.569v.363c0 1.762.732 3.45 2.021 4.65L16 26.832l10.981-10.25A6.358 6.358 0 0 0 29 11.932v-.363c0-2.9-2.1-5.377-4.956-5.854a6.065 6.065 0 0 0-5.175 1.604l-2.925 2.925z"/>
    </symbol>
    
    <symbol id="circle-up-regular" viewBox="0 0 32 32">
      <path d="M17.056 8.481A1.52 1.52 0 0 0 15.95 8c-.481.019-.881.181-1.106.487l-5.453 6a1.491 1.491 0 0 0-.259 1.619c.238.544.775.894 1.313.894h3.5l.056 5.5a1.5 1.5 0 0 0 1.5 1.5h1c.828 0 1.444-.672 1.444-1.5V17h3.5a1.5 1.5 0 0 0 1.101-2.518l-5.489-6.001zM16 0C7.162 0 0 7.162 0 16s7.162 16 16 16 16-7.163 16-16S24.837 0 16 0zm0 29C8.831 29 3 23.168 3 16S8.831 3 16 3s13 5.832 13 13-5.831 13-13 13z"/>
    </symbol>
    <symbol id="circle-chevron-up-solid" viewBox="0 0 32 32">
      <path d="M16 32c8.837 0 16-7.163 16-16S24.837 0 16 0 0 7.162 0 16s7.162 16 16 16zm7.563-15.062c.587.587.587 1.538 0 2.119s-1.538.587-2.119 0l-5.438-5.438-5.438 5.438a1.499 1.499 0 0 1-2.119-2.119l6.487-6.5a1.493 1.493 0 0 1 2.119 0l6.506 6.5z"/>
    </symbol>
    <symbol id="circle-arrow-up-solid" viewBox="0 0 32 32">
      <path d="M16 32c8.837 0 16-7.163 16-16S24.837 0 16 0 0 7.162 0 16s7.162 16 16 16zm8.063-18.562a1.499 1.499 0 0 1-2.119 2.119l-4.438-4.438V24.5c0 .831-.669 1.5-1.5 1.5s-1.5-.669-1.5-1.5V11.119l-4.438 4.438a1.499 1.499 0 0 1-2.119-2.119l6.987-7a1.493 1.493 0 0 1 2.119 0l7.006 7z"/>
    </symbol>
    <symbol id="caret-up-solid" viewBox="0 0 20 32">
      <path d="M11.412 8.588a2.003 2.003 0 0 0-2.831 0l-8 8c-.575.575-.744 1.431-.431 2.181S1.188 20.007 2 20.007h16a2.004 2.004 0 0 0 1.419-3.419l-8-8z"/>
    </symbol>
    <symbol id="c-solid" viewBox="0 0 24 32">
      <path d="M20.569 8.931c-3.906-3.906-9.738-3.906-13.644 0s-3.906 10.238 0 14.144 9.738 3.906 13.644 0c.781-.781 2.05-.781 2.831 0s.781 2.05 0 2.831c-5.469 5.469-13.831 5.469-19.3 0s-5.469-14.331 0-19.8 13.831-5.469 19.3 0c.781.781.781 2.05 0 2.831s-2.05.781-2.831 0z"/>
    </symbol>
    <symbol id="angle-down-solid" viewBox="0 0 28 32">
      <path d="M12.588 23.413c.781.781 2.05.781 2.831 0l10-10c.781-.781.781-2.05 0-2.831s-2.05-.781-2.831 0L14 19.17l-8.588-8.581c-.781-.781-2.05-.781-2.831 0s-.781 2.05 0 2.831l10 10z"/>
    </symbol>
  </defs>
</svg>
