<svg aria-hidden="true" style="position:absolute;width:0;height:0" xmlns="http://www.w3.org/2000/svg" overflow="hidden">
  <defs>
    <symbol id="logo" viewBox="0 0 21 32">
      <path d="M2.667 1.333H4v1.333h13.333V1.333h1.333V16h-1.333v-1.333H4V16H2.667V1.333zm1.333 3V5c0 .184.149.333.333.333H5A.333.333 0 0 0 5.333 5v-.667A.333.333 0 0 0 5 4h-.667A.333.333 0 0 0 4 4.333zM4 7v.667c0 .184.149.333.333.333H5a.333.333 0 0 0 .333-.333V7A.333.333 0 0 0 5 6.667h-.667A.333.333 0 0 0 4 7zm0 2.667v.667c0 .184.149.333.333.333H5a.333.333 0 0 0 .333-.333v-.667A.333.333 0 0 0 5 9.334h-.667A.333.333 0 0 0 4 9.667zm0 2.666V13c0 .184.149.333.333.333H5A.333.333 0 0 0 5.333 13v-.667A.333.333 0 0 0 5 12h-.667a.333.333 0 0 0-.333.333zm13.333-8A.333.333 0 0 0 17 4h-.667a.333.333 0 0 0-.333.333V5c0 .184.149.333.333.333H17A.333.333 0 0 0 17.333 5v-.667zm0 2.667A.333.333 0 0 0 17 6.667h-.667A.333.333 0 0 0 16 7v.667c0 .184.149.333.333.333H17a.333.333 0 0 0 .333-.333V7zm0 2.667A.333.333 0 0 0 17 9.334h-.667a.333.333 0 0 0-.333.333v.667c0 .184.149.333.333.333H17a.333.333 0 0 0 .333-.333v-.667zm0 2.666A.333.333 0 0 0 17 12h-.667a.333.333 0 0 0-.333.333V13c0 .184.149.333.333.333H17a.333.333 0 0 0 .333-.333v-.667zM1.333 18c0-.368.298-.667.667-.667h17.333c.368 0 .667.299.667.667v2a.667.667 0 0 1-.667.667h-3.057l-4.667 4.667 5.333 5.333h-1.886l-4.391-4.391-4.391 4.391H4.388l5.333-5.333-4.667-4.667H1.997A.667.667 0 0 1 1.33 20v-2zm5.61 2.667 3.724 3.724 3.724-3.724H6.943z"/>
    </symbol>
    <symbol id="play_youtube" viewBox="0 0 46 32">
      <path d="M39.111 0.356h-32c-3.732 0-6.756 3.024-6.756 6.756v17.778c0 3.732 3.024 6.756 6.756 6.756h32c3.732 0 6.756-3.024 6.756-6.756v-17.778c0-3.732-3.024-6.756-6.756-6.756zM18.133 23.111v-14.222l12.089 7.111-12.089 7.111z"></path>
    </symbol>
    <symbol id="play_youtube_2" viewBox="0 0 32 32">
      <path d="M30.662 5.003C26.174 4.358 21.214 4 16 4S5.826 4.358 1.338 5.003C.478 8.369 0 12.089 0 16s.477 7.63 1.338 10.997C5.827 27.642 10.786 28 16 28s10.174-.358 14.662-1.003C31.522 23.631 32 19.911 32 16s-.477-7.63-1.338-10.997zM12 22V10l10 6-10 6z"/>
    </symbol>
    <symbol id="play_1" viewBox="0 0 459 459">
      <path d="M229.5 0C102.751 0 0 102.751 0 229.5S102.751 459 229.5 459 459 356.249 459 229.5 356.249 0 229.5 0zm80.792 239.651-111.764 76.084a12.281 12.281 0 0 1-19.19-10.151V153.416a12.281 12.281 0 0 1 19.19-10.151l111.764 76.084a12.28 12.28 0 0 1 0 20.302z"/>
    </symbol>
    <symbol id="play_2" viewBox="0 0 32 32">
      <path d="m6 4 20 12L6 28z"/>
    </symbol>
    <symbol id="youtube" viewBox="0 0 36 32">
      <path d="M34.353 7.755a4.289 4.289 0 0 0-3.018-3.037C28.673 4 17.999 4 17.999 4S7.325 4 4.663 4.718a4.289 4.289 0 0 0-3.018 3.037c-.713 2.679-.713 8.269-.713 8.269s0 5.59.713 8.269c.393 1.478 1.549 2.594 3.018 2.989C7.325 28 17.999 28 17.999 28s10.674 0 13.336-.718c1.469-.395 2.625-1.511 3.018-2.989.713-2.679.713-8.269.713-8.269s0-5.59-.713-8.269zM14.509 21.099v-10.15l8.921 5.075-8.921 5.075z"/>
    </symbol>
    <symbol id="whatsapp" viewBox="0 0 32 32">
      <path d="M16 3h-.006c-7.18 0-13 5.82-13 13 0 2.244.569 4.356 1.57 6.198l-.034-.068L3 27.74a1 1 0 0 0 .27 1 .996.996 0 0 0 .674.262L4.002 29h-.003a.81.81 0 0 0 .275-.001L4.269 29l5.91-1.65a1 1 0 1 0-.537-1.929l.007-.002-4.23 1.14 1.15-4.3a.994.994 0 0 0-.103-.764l.003.005A10.882 10.882 0 0 1 4.995 16c0-6.075 4.925-11 11-11s11 4.925 11 11c0 6.074-4.923 10.998-10.996 11h-.011c-.646 0-1.279-.055-1.896-.159l.066.009a1 1 0 0 0-1.149.814l-.001.006a1 1 0 0 0 .814 1.149l.006.001c.648.115 1.394.18 2.156.18 7.18 0 13-5.82 13-13 0-7.175-5.812-12.992-12.985-13h-.001z"/>
      <path d="m15 11.21-1.16-1.6a2.06 2.06 0 0 0-1.493-.839l-.007-.001a2.07 2.07 0 0 0-1.62.6l-1.2 1.2a2.8 2.8 0 0 0-.8 2.086v-.006c0 1.77 1.36 4 4 6.6 3.09 3 5.23 4 6.69 4l.071.001c.756 0 1.439-.31 1.929-.81l1.2-1.2a1.997 1.997 0 0 0-.233-3.106l-.007-.004-1.57-1.13a2.073 2.073 0 0 0-1.845-.296l.015-.004-1.49.47a.531.531 0 0 1-.262-.091l.002.001a11.52 11.52 0 0 1-2.331-2.235l-.019-.025a.321.321 0 0 1 0-.112v.002c.13-.44.35-1.15.5-1.64a1.993 1.993 0 0 0-.373-1.863l.003.003zm1.29 7.63a2.334 2.334 0 0 0 1.766.196l-.016.004 1.54-.46 1.61 1.25L20 21c-.48.47-2.25.33-5.86-3.21-3-2.91-3.41-4.5-3.41-5.18A.888.888 0 0 1 11 12l1.28-1.19 1.18 1.65c-.16.49-.39 1.22-.51 1.65a2.114 2.114 0 0 0 .055 1.415L13 15.511a11.362 11.362 0 0 0 3.287 3.304l.043.026z"/>
    </symbol>
    <symbol id="viber" viewBox="0 0 32 32">
      <path d="M27.75 3.119C26.956 2.388 23.744.056 16.581.025c0 0-8.444-.506-12.556 3.269C1.737 5.582.931 8.938.844 13.094S.65 25.038 8.157 27.15h.006l-.006 3.225s-.05 1.306.813 1.569c1.037.325 1.65-.669 2.644-1.738a97.604 97.604 0 0 0 1.863-2.106c5.137.431 9.081-.556 9.531-.7 1.038-.337 6.906-1.087 7.856-8.875.988-8.037-.475-13.113-3.113-15.406zm.869 14.819c-.806 6.5-5.563 6.913-6.438 7.194-.375.119-3.844.981-8.2.7 0 0-3.25 3.919-4.262 4.938-.331.331-.694.3-.688-.356 0-.431.025-5.356.025-5.356-.006 0-.006 0 0 0-6.362-1.762-5.987-8.394-5.919-11.863S3.862 6.882 5.8 4.97c3.481-3.156 10.65-2.688 10.65-2.688 6.056.025 8.956 1.85 9.631 2.463 2.231 1.912 3.369 6.488 2.538 13.194zm-8.688-5.051c.025.537-.781.575-.806.037-.069-1.375-.712-2.044-2.038-2.119-.538-.031-.488-.838.044-.806 1.744.094 2.712 1.094 2.8 2.888zm1.269.707c.063-2.65-1.594-4.725-4.738-4.956-.531-.037-.475-.844.056-.806 3.625.262 5.556 2.756 5.488 5.781-.006.537-.819.512-.806-.019zm2.937.837c.006.537-.806.544-.806.006-.038-5.094-3.431-7.869-7.55-7.9-.531-.006-.531-.806 0-.806 4.606.031 8.313 3.213 8.356 8.7zm-.706 6.132v.012c-.675 1.188-1.938 2.5-3.238 2.081l-.012-.019c-1.319-.369-4.425-1.969-6.387-3.531a16.35 16.35 0 0 1-2.65-2.65 20.218 20.218 0 0 1-1.925-2.912c-1.331-2.406-1.625-3.481-1.625-3.481-.419-1.3.887-2.563 2.081-3.237h.012c.575-.3 1.125-.2 1.494.244 0 0 .775.925 1.106 1.381.313.425.731 1.106.95 1.488.381.681.144 1.375-.231 1.662l-.75.6c-.381.306-.331.875-.331.875s1.113 4.206 5.269 5.269c0 0 .569.05.875-.331l.6-.75c.288-.375.981-.613 1.663-.231.919.519 2.087 1.325 2.863 2.056.438.356.538.9.238 1.475z"/>
    </symbol>
    <symbol id="up-long-solid" viewBox="0 0 20 32">
      <path d="M19.875 11.094a1.498 1.498 0 0 0-.288-1.625l-8.5-9C10.806.169 10.412 0 9.999 0s-.806.169-1.088.469l-8.5 9A1.5 1.5 0 0 0 1.499 12h5.5v18c0 1.106.894 2 2 2h2c1.106 0 2-.894 2-2V12h5.5c.6 0 1.137-.356 1.375-.906z"/>
    </symbol>
    <symbol id="telegram" viewBox="0 0 32 32">
      <path d="M15.925 0C7.121.042 0 7.19 0 16c0 8.837 7.163 16 16 16s16-7.163 16-16S24.837 0 16 0h-.076.002zm6.616 9.632c.133-.003.428.031.62.187a.673.673 0 0 1 .228.43v.003c.021.124.048.408.027.629-.24 2.531-1.283 8.669-1.813 11.503-.224 1.2-.665 1.601-1.093 1.64-.928.087-1.633-.613-2.533-1.203-1.408-.924-2.204-1.499-3.571-2.4-1.58-1.04-.556-1.613.344-2.547.236-.245 4.329-3.969 4.409-4.307.009-.043.019-.2-.075-.283s-.232-.055-.332-.032c-.141.032-2.391 1.52-6.748 4.46-.64.44-1.217.653-1.736.64-.571-.011-1.669-.321-2.487-.587-1.003-.327-1.799-.499-1.729-1.052.036-.288.433-.583 1.191-.884 4.664-2.032 7.773-3.372 9.331-4.019 4.443-1.848 5.367-2.169 5.968-2.18z"/>
    </symbol>
    <symbol id="tiktok" viewBox="0 0 32 32">
      <path d="M16.7.027C18.447 0 20.18.014 21.913 0c.107 2.04.84 4.12 2.333 5.56 1.493 1.48 3.6 2.16 5.653 2.387v5.373c-1.92-.067-3.853-.467-5.6-1.293-.76-.347-1.467-.787-2.16-1.24-.013 3.893.013 7.787-.027 11.667-.107 1.867-.72 3.72-1.8 5.253-1.747 2.56-4.773 4.227-7.88 4.28-1.907.107-3.813-.413-5.44-1.373-2.693-1.587-4.587-4.493-4.867-7.613a24.42 24.42 0 0 1-.013-1.987 10.004 10.004 0 0 1 3.44-6.613c2.213-1.92 5.307-2.84 8.2-2.293.027 1.973-.053 3.947-.053 5.92-1.32-.427-2.867-.307-4.027.493a4.631 4.631 0 0 0-1.813 2.333c-.28.68-.2 1.427-.187 2.147.32 2.187 2.427 4.027 4.667 3.827 1.493-.013 2.92-.88 3.693-2.147.253-.44.533-.893.547-1.413.133-2.387.08-4.76.093-7.147.013-5.373-.013-10.733.027-16.093z"/>
    </symbol>
    <symbol id="star-regular" viewBox="0 0 36 32">
      <path d="M17.994 0a1.5 1.5 0 0 1 1.35.845l4.288 8.83 9.581 1.419a1.5 1.5 0 0 1 1.206 1.012 1.503 1.503 0 0 1-.369 1.531l-6.95 6.887 1.644 9.719a1.497 1.497 0 0 1-.606 1.469c-.462.331-1.131.375-1.581.106l-8.563-4.575-8.613 4.575c-.45.269-1.063.225-1.531-.106-.463-.331-.694-.906-.656-1.469l1.694-9.719-6.943-6.887a1.496 1.496 0 0 1 .837-2.543l9.576-1.419 4.287-8.83A1.506 1.506 0 0 1 17.995 0zm0 4.934L14.713 11.7a1.525 1.525 0 0 1-1.131.831l-7.395 1.088 5.37 5.319c.344.344.5.837.419 1.319l-1.262 7.475 6.575-3.512a1.487 1.487 0 0 1 1.413 0l6.575 3.512-1.262-7.475a1.517 1.517 0 0 1 .425-1.319l5.369-5.319-7.394-1.088a1.501 1.501 0 0 1-1.131-.831l-3.288-6.766z"/>
    </symbol>
    <symbol id="phone-solid" viewBox="0 0 32 32">
      <path d="M10.306 1.538A2.492 2.492 0 0 0 7.343.088l-5.5 1.5A2.508 2.508 0 0 0-.001 4c0 15.462 12.537 28 28 28a2.508 2.508 0 0 0 2.413-1.844l1.5-5.5a2.493 2.493 0 0 0-1.45-2.962l-6-2.5a2.493 2.493 0 0 0-2.894.725L19.043 23A21.122 21.122 0 0 1 8.999 12.956l3.081-2.519c.856-.7 1.15-1.875.725-2.894l-2.5-6z"/>
    </symbol>
    <symbol id="messenger" viewBox="0 0 32 32">
      <path d="M16 3C8.83 3 3 8.38 3 15a11.204 11.204 0 0 0 2.192 6.661l-.022-.031a1.002 1.002 0 1 0 1.628-1.173l.002.003A9.163 9.163 0 0 1 5 15.001V15C5 9.49 9.93 5 16 5s11 4.49 11 10-4.93 10-11 10h-.011c-1.193 0-2.346-.175-3.433-.502l.084.022a.997.997 0 0 0-.883.162l.002-.002L9.999 26v-2.08a1 1 0 0 0-2 0V28a.999.999 0 0 0 .544.887l.006.003a.998.998 0 0 0 1.003-.092l-.003.002 3-2.23c1.021.273 2.192.43 3.401.43h.052-.003c7.17 0 13-5.38 13-12s-5.83-12-13-12z"/>
      <path d="m8.45 19.89 5.35-2.67L15.59 19a1.995 1.995 0 0 0 2.82 0l6.3-6.29a1 1 0 0 0-1.165-1.598l.006-.003-5.35 2.67-1.79-1.78a1.995 1.995 0 0 0-2.82 0l-6.3 6.29a1 1 0 0 0 .704 1.71h.017a.924.924 0 0 0 .444-.113l-.005.002zM15 13.41l2.29 2.3a.617.617 0 0 0 .166.108l.004.002a.502.502 0 0 0 .156.089l.004.001h.17a.628.628 0 0 0 .204-.001h-.004a1.08 1.08 0 0 0 .174 0h-.004a.572.572 0 0 0 .213-.061l-.003.001.49-.24-1.86 1.98-2.29-2.3a1.166 1.166 0 0 0-.183-.117l-.007-.003a.694.694 0 0 0-.145-.078l-.005-.002h-.18a.647.647 0 0 0-.185-.089L14 14.999a1.08 1.08 0 0 0-.174 0h.004a.572.572 0 0 0-.213.061l.003-.001-.49.24z"/>
    </symbol>
    <symbol id="location-dot-solid" viewBox="0 0 24 32">
      <path d="M13.481 31.2C16.687 27.188 24 17.462 24 12c0-6.625-5.375-12-12-12S0 5.375 0 12c0 5.462 7.313 15.188 10.519 19.2a1.89 1.89 0 0 0 2.963 0zM12 16c-2.206 0-4-1.794-4-4s1.794-4 4-4 4 1.794 4 4-1.794 4-4 4z"/>
    </symbol>
    <symbol id="instagram" viewBox="0 0 32 32">
      <path d="M16 0c-4.347 0-4.889.02-6.596.096C7.7.176 6.54.444 5.52.84c-1.052.408-1.945.956-2.835 1.845S1.246 4.466.84 5.52C.444 6.54.175 7.7.096 9.404.016 11.111 0 11.653 0 16s.02 4.889.096 6.596c.08 1.703.348 2.864.744 3.884a7.854 7.854 0 0 0 1.845 2.835A7.807 7.807 0 0 0 5.52 31.16c1.021.395 2.181.665 3.884.744 1.707.08 2.249.096 6.596.096s4.889-.02 6.596-.096c1.703-.08 2.864-.349 3.884-.744a7.867 7.867 0 0 0 2.835-1.845 7.799 7.799 0 0 0 1.845-2.835c.395-1.02.665-2.181.744-3.884.08-1.707.096-2.249.096-6.596s-.02-4.889-.096-6.596c-.08-1.703-.349-2.865-.744-3.884a7.859 7.859 0 0 0-1.845-2.835A7.786 7.786 0 0 0 26.48.84C25.46.444 24.299.175 22.596.096 20.889.016 20.347 0 16 0zm0 2.88c4.271 0 4.78.021 6.467.095 1.56.073 2.407.332 2.969.553.749.289 1.28.636 1.843 1.195a4.95 4.95 0 0 1 1.195 1.841c.219.563.48 1.409.551 2.969.076 1.688.093 2.195.093 6.467s-.02 4.78-.099 6.467c-.081 1.56-.341 2.407-.561 2.969-.299.749-.639 1.28-1.199 1.843a5.002 5.002 0 0 1-1.84 1.195c-.56.219-1.42.48-2.98.551-1.699.076-2.199.093-6.479.093-4.281 0-4.781-.02-6.479-.099-1.561-.081-2.421-.341-2.981-.561-.759-.299-1.28-.639-1.839-1.199a4.867 4.867 0 0 1-1.2-1.84c-.22-.56-.479-1.42-.56-2.98-.06-1.68-.081-2.199-.081-6.459 0-4.261.021-4.781.081-6.481.081-1.56.34-2.419.56-2.979.28-.76.639-1.28 1.2-1.841.559-.559 1.08-.919 1.839-1.197.56-.221 1.401-.481 2.961-.561 1.7-.06 2.2-.08 6.479-.08l.06.04zm0 4.904A8.215 8.215 0 0 0 7.784 16c0 4.54 3.68 8.216 8.216 8.216 4.54 0 8.216-3.68 8.216-8.216 0-4.54-3.68-8.216-8.216-8.216zm0 13.549c-2.947 0-5.333-2.387-5.333-5.333s2.387-5.333 5.333-5.333 5.333 2.387 5.333 5.333-2.387 5.333-5.333 5.333zM26.461 7.46a1.921 1.921 0 0 1-3.84 0 1.92 1.92 0 0 1 3.84 0z"/>
    </symbol>
    <symbol id="image-regular" viewBox="0 0 32 32">
      <path d="M9.5 7.5a3 3 0 1 0 0 6 3 3 0 0 0 0-6zM27.944 2h-24C1.791 2 0 3.791 0 6v20c0 2.209 1.791 4 3.944 4h24a4 4 0 0 0 4-4V6c.001-2.209-1.737-4-3.999-4zm1 23.581-8.55-11.619c-.156-.287-.512-.463-.894-.463s-.739.173-.951.461l-6.662 9.006-2.318-2.881c-.215-.267-.558-.426-.923-.426s-.708.158-.924.426l-4.72 5.863c0-.002 0 .002 0 0L3 5.999c0-.551.449-1 1-1h24c.551 0 1 .449 1 1V25.58z"/>
    </symbol>
    <symbol id="heart-solid" viewBox="0 0 32 32">
      <path d="m2.975 18.775 11.294 10.544a2.538 2.538 0 0 0 3.462 0l11.294-10.544A9.35 9.35 0 0 0 32 11.931v-.363a8.933 8.933 0 0 0-15.25-6.319l-.75.75-.75-.75A8.934 8.934 0 0 0 0 11.568v.363a9.35 9.35 0 0 0 2.975 6.844z"/>
    </symbol>
    <symbol id="heart-regular" viewBox="0 0 32 32">
      <path d="m15.25 5.25.694.75.75-.749c2.094-2.041 4.994-2.969 7.844-2.495A8.932 8.932 0 0 1 32 11.569v.363a9.35 9.35 0 0 1-2.975 6.844L17.731 29.32a2.538 2.538 0 0 1-3.462 0L2.975 18.776a9.36 9.36 0 0 1-2.974-6.844v-.363a8.934 8.934 0 0 1 7.463-8.813c2.794-.474 5.75.454 7.787 2.494-.056 0 0 .001 0 0zm.694 4.994-2.813-2.925a6.065 6.065 0 0 0-5.175-1.604A5.935 5.935 0 0 0 3 11.569v.363c0 1.762.732 3.45 2.021 4.65L16 26.832l10.981-10.25A6.358 6.358 0 0 0 29 11.932v-.363c0-2.9-2.1-5.377-4.956-5.854a6.065 6.065 0 0 0-5.175 1.604l-2.925 2.925z"/>
    </symbol>
    <symbol id="googlemaps" viewBox="0 0 32 32">
      <path d="M26.036 6.399c1.616 3.477 1.249 7.571-.54 10.897-1.468 2.729-3.659 4.987-5.464 7.485-.825 1.144-1.659 2.333-2.225 3.636-.188.433-.351.877-.511 1.323-.161.444-.299.897-.453 1.344-.145.419-.315.912-.836.916h-.009c-.621-.001-.772-.707-.927-1.183-.379-1.165-.775-2.284-1.359-3.367-.68-1.259-1.527-2.423-2.387-3.561L26.036 6.398zm-14.643 3.874-5.279 6.276c.965 2.053 2.428 3.817 3.828 5.573.329.413.659.829.983 1.248l6.645-7.9-.039.013c-2.321.801-4.921-.388-5.856-2.649a4.315 4.315 0 0 1-.275-.927l-.004-.027c-.084-.583-.103-1.015-.005-1.597l.001-.009zm-4.07-6.074-.004.005c-2.596 3.288-3.041 7.84-1.489 11.693l6.38-7.585-.077-.067-4.809-4.047zM19.548.581l-5.117 6.084a.38.38 0 0 1 .033-.013l.003-.001c2.133-.735 4.537.2 5.627 2.168.235.425.431.911.503 1.393.091.595.113 1.031.016 1.627l-.004.021 5.115-6.081C24.378 3.357 22.227 1.52 19.64.608l-.078-.024L19.55.58zm-6.927 7.243L18.882.38l-.063-.016A10.826 10.826 0 0 0 16.002 0h-.023.001a11.228 11.228 0 0 0-8.217 3.679l-.008.009-.021.024 4.887 4.112z"/>
    </symbol>
    <symbol id="googledrive" viewBox="0 0 32 32">
      <path d="M16.013 1.98c-2.776 0-5.005.027-4.991.063.013.027 2.277 4.001 5.032 8.827l5.013 8.765h5.013c2.775 0 5.004-.027 4.989-.063-.007-.027-2.277-4.001-5.033-8.827L21.023 1.98zM9.667 4.287c1.066-2.18-.538.572-2.131 3.333l-2.709 5.092L0 21.157l2.52 4.397 2.513 4.396 9.651-16.887-2.507-4.383C10.8 6.271 9.673 4.292 9.666 4.284zm3.012 16.87-.271.464c-.152.264-1.28 2.229-2.507 4.383-2.202 4.044-2.953 5.339-3.708 6.63l1.444-2.67c-.013.035 4.32.056 9.629.056h9.659l2.395-4.209c1.323-2.312 2.467-4.307 2.541-4.431l.139-.223h-9.665z"/>
    </symbol>
    <symbol id="facebook" viewBox="0 0 32 32">
      <path d="M32 16.097c0-8.836-7.164-16-16-16s-16 7.164-16 16c0 7.987 5.851 14.605 13.5 15.805v-11.18H9.437v-4.627H13.5v-3.523c0-4.009 2.389-6.225 6.044-6.225 1.749 0 3.581.313 3.581.313v3.937h-2.019c-1.988 0-2.608 1.233-2.608 2.499v3h4.437l-.709 4.627h-3.728v11.18c7.651-1.201 13.501-7.821 13.501-15.807z"/>
    </symbol>
    <symbol id="envelope-solid" viewBox="0 0 32 32">
      <path d="M3 4a3.001 3.001 0 0 0-1.8 5.4l13.6 10.2a2.007 2.007 0 0 0 2.4 0L30.8 9.4A3.001 3.001 0 0 0 29 4H3zm-3 7v13c0 2.206 1.794 4 4 4h24c2.206 0 4-1.794 4-4V11L18.4 21.2a3.993 3.993 0 0 1-4.8 0L0 11z"/>
    </symbol>
    <symbol id="circle-up-regular" viewBox="0 0 32 32">
      <path d="M17.056 8.481A1.52 1.52 0 0 0 15.95 8c-.481.019-.881.181-1.106.487l-5.453 6a1.491 1.491 0 0 0-.259 1.619c.238.544.775.894 1.313.894h3.5l.056 5.5a1.5 1.5 0 0 0 1.5 1.5h1c.828 0 1.444-.672 1.444-1.5V17h3.5a1.5 1.5 0 0 0 1.101-2.518l-5.489-6.001zM16 0C7.162 0 0 7.162 0 16s7.162 16 16 16 16-7.163 16-16S24.837 0 16 0zm0 29C8.831 29 3 23.168 3 16S8.831 3 16 3s13 5.832 13 13-5.831 13-13 13z"/>
    </symbol>
    <symbol id="circle-chevron-up-solid" viewBox="0 0 32 32">
      <path d="M16 32c8.837 0 16-7.163 16-16S24.837 0 16 0 0 7.162 0 16s7.162 16 16 16zm7.563-15.062c.587.587.587 1.538 0 2.119s-1.538.587-2.119 0l-5.438-5.438-5.438 5.438a1.499 1.499 0 0 1-2.119-2.119l6.487-6.5a1.493 1.493 0 0 1 2.119 0l6.506 6.5z"/>
    </symbol>
    <symbol id="circle-arrow-up-solid" viewBox="0 0 32 32">
      <path d="M16 32c8.837 0 16-7.163 16-16S24.837 0 16 0 0 7.162 0 16s7.162 16 16 16zm8.063-18.562a1.499 1.499 0 0 1-2.119 2.119l-4.438-4.438V24.5c0 .831-.669 1.5-1.5 1.5s-1.5-.669-1.5-1.5V11.119l-4.438 4.438a1.499 1.499 0 0 1-2.119-2.119l6.987-7a1.493 1.493 0 0 1 2.119 0l7.006 7z"/>
    </symbol>
    <symbol id="caret-up-solid" viewBox="0 0 20 32">
      <path d="M11.412 8.588a2.003 2.003 0 0 0-2.831 0l-8 8c-.575.575-.744 1.431-.431 2.181S1.188 20.007 2 20.007h16a2.004 2.004 0 0 0 1.419-3.419l-8-8z"/>
    </symbol>
    <symbol id="c-solid" viewBox="0 0 24 32">
      <path d="M20.569 8.931c-3.906-3.906-9.738-3.906-13.644 0s-3.906 10.238 0 14.144 9.738 3.906 13.644 0c.781-.781 2.05-.781 2.831 0s.781 2.05 0 2.831c-5.469 5.469-13.831 5.469-19.3 0s-5.469-14.331 0-19.8 13.831-5.469 19.3 0c.781.781.781 2.05 0 2.831s-2.05.781-2.831 0z"/>
    </symbol>
    <symbol id="angle-down-solid" viewBox="0 0 28 32">
      <path d="M12.588 23.413c.781.781 2.05.781 2.831 0l10-10c.781-.781.781-2.05 0-2.831s-2.05-.781-2.831 0L14 19.17l-8.588-8.581c-.781-.781-2.05-.781-2.831 0s-.781 2.05 0 2.831l10 10z"/>
    </symbol>
    <symbol id="play3" viewBox="0 0 32 32">
      <path d="m6 4 20 12L6 28z"/>
    </symbol>
    <symbol id="whatsapp2" viewBox="0 0 448 512">
      <path d="M380.9 97.1C339 55.1 283.2 32 223.9 32c-122.4 0-222 99.6-222 222 0 39.1 10.2 77.3 29.6 111L0 480l117.7-30.9c32.4 17.7 68.9 27 106.1 27h.1c122.3 0 224.1-99.6 224.1-222 0-59.3-25.2-115-67.1-157zm-157 341.6c-33.2 0-65.7-8.9-94-25.7l-6.7-4-69.8 18.3L72 359.2l-4.4-7c-18.5-29.4-28.2-63.3-28.2-98.2 0-101.7 82.8-184.5 184.6-184.5 49.3 0 95.6 19.2 130.4 54.1 34.8 34.9 56.2 81.2 56.1 130.5 0 101.8-84.9 184.6-186.6 184.6zm101.2-138.2c-5.5-2.8-32.8-16.2-37.9-18-5.1-1.9-8.8-2.8-12.5 2.8-3.7 5.6-14.3 18-17.6 21.8-3.2 3.7-6.5 4.2-12 1.4-32.6-16.3-54-29.1-75.5-66-5.7-9.8 5.7-9.1 16.3-30.3 1.8-3.7.9-6.9-.5-9.7-1.4-2.8-12.5-30.1-17.1-41.2-4.5-10.8-9.1-9.3-12.5-9.5-3.2-.2-6.9-.2-10.6-.2-3.7 0-9.7 1.4-14.8 6.9-5.1 5.6-19.4 19-19.4 46.3 0 27.3 19.9 53.7 22.6 57.4 2.8 3.7 39.1 59.7 94.8 83.8 35.2 15.2 49 16.5 66.6 13.9 10.7-1.6 32.8-13.4 37.4-26.4 4.6-13 4.6-24.1 3.2-26.4-1.3-2.5-5-3.9-10.5-6.6z"/>
    </symbol>
  </defs>
</svg>
